# xmcd CD database file
#
# Track frame offsets:
#	150
#	16905
#	28512
#	39860
#	55550
#	71397
#	83545
#	97015
#	110340
#	128817
#	145797
#	157009
#	168242
#	181425
#	196542
#	207340
#	217512
#	231187
#
# Disc length: 3232 seconds
#
# Revision: 0
# Processed by: cddbd v1.5.1PL0 Copyright (c) Steve Scherf et al.
# Submitted via: CDex 1.51
#
DISCID=da0c9e12
DTITLE=Rita Reys  - The Rita Reys Story - Songs of a lifetime - CD2 - 1962-1968
DYEAR=2004
DGENRE=Jazz
TTITLE0=Desafinado 
TTITLE1=Stella By Starlight 
TTITLE2=Bluesette 
TTITLE3=Easy Living 
TTITLE4=You Don't Know What Love Is 
TTITLE5=Whisper Not 
TTITLE6=Basin Street Blues 
TTITLE7=I Love You 
TTITLE8=A Day In The Life Of A Fool 
TTITLE9=Summertime 
TTITLE10=The Boy From Ipanema 
TTITLE11=Side By Side 
TTITLE12=Sunny 
TTITLE13=Waltz For Debby 
TTITLE14=All My Lovin' (Close Your Eyes) 
TTITLE15=Lazy River 
TTITLE16=Yesterday 
TTITLE17=Jij Herinnert Mij 
EXTD=YEAR: 2004
EXTT0=
EXTT1=
EXTT2=
EXTT3=
EXTT4=
EXTT5=
EXTT6=
EXTT7=
EXTT8=
EXTT9=
EXTT10=
EXTT11=
EXTT12=
EXTT13=
EXTT14=
EXTT15=
EXTT16=
EXTT17=
PLAYORDER=
